<svg width="1080" height="1080" viewBox="0 0 1080 1080" fill="none" xmlns="http://www.w3.org/2000/svg">
<path d="M630.46 823.813H446.018C437.45 823.813 430.504 830.759 430.504 839.327V839.363C430.504 847.931 437.45 854.877 446.018 854.877H630.46C639.028 854.877 645.974 847.931 645.974 839.363V839.327C645.974 830.759 639.028 823.813 630.46 823.813Z" fill="#6E33A9"/>
<path d="M630.46 868.879H446.018C437.45 868.879 430.504 875.825 430.504 884.393V884.429C430.504 892.997 437.45 899.943 446.018 899.943H630.46C639.028 899.943 645.974 892.997 645.974 884.429V884.393C645.974 875.825 639.028 868.879 630.46 868.879Z" fill="#6E33A9"/>
<path d="M577.741 913.949C577.741 935.783 560.072 953.451 538.238 953.451C516.404 953.451 498.735 935.783 498.735 913.949" fill="#6E33A9"/>
<g filter="url(#filter0_i_2152_615)">
<path d="M617.404 619.61L578.091 809.977H487.3L542.322 684.417C544.05 680.386 540.52 676.113 536.082 676.848L459.248 689.677C454.574 690.447 451.019 685.693 453.244 681.637L516.578 565.994H465.699C461.647 565.994 459.807 561.108 462.902 558.581L561.739 477.719C564.213 475.709 568.016 476.912 568.775 479.945L588.912 560.807C589.571 563.443 587.495 565.994 584.686 565.994H547.779L536.157 622.269C535.336 626.229 539.04 629.671 543.093 628.732L610.492 613.063C614.582 612.112 618.299 615.626 617.404 619.61Z" fill="url(#paint0_radial_2152_615)"/>
</g>
<g filter="url(#filter1_d_2152_615)">
<path fill-rule="evenodd" clip-rule="evenodd" d="M572.68 138.043L667.49 210.325L660.075 264.306C648.133 266.189 639 276.528 639 289C639 290.452 639.124 291.875 639.361 293.26L400.423 334.568C396.643 326.885 390.128 320.791 382.15 317.554L377.496 237.046L507.356 138.043C526.641 123.319 553.395 123.319 572.68 138.043ZM674.915 266.502L681.196 220.774L843.812 344.75C857.171 354.913 865 370.786 865 387.593V431C862.049 431 859.217 431.511 856.589 432.45L686.11 300.679C687.955 297.193 689 293.219 689 289C689 279.106 683.253 270.555 674.915 266.502ZM782.988 659.353L851.457 477.017C844.563 472.566 840 464.816 840 456C840 450.784 841.598 445.941 844.33 441.933L677.897 313.29L720.324 462.708C734.472 488.674 743.173 517.992 744.857 549.104L776.076 659.052C776.713 659.017 777.355 659 778 659C779.693 659 781.359 659.12 782.988 659.353ZM629.614 310.167L403.99 349.173C403.997 349.448 404 349.724 404 350C404 369.33 388.33 385 369 385C367.85 385 366.714 384.945 365.592 384.836L349.182 485.175C379.32 409.156 453.729 355.084 540 355.057C551.214 355.06 562.228 355.976 572.97 357.735L629.614 310.167ZM652.013 310.944L591.589 361.687C631.808 372.218 667.339 394.73 694.066 425.148L662.493 313.955C658.712 313.731 655.158 312.665 652.013 310.944ZM236.224 344.75L363.105 248.018L366.98 315.057C348.59 316.104 334 331.348 334 350C334 350.863 334.031 351.719 334.093 352.567L220.219 364.469C223.861 356.807 229.306 350.013 236.224 344.75ZM742.26 594.875L761.622 663.061C750.545 668.937 743 680.587 743 694C743 696.573 743.278 699.081 743.805 701.496L678.206 713.149C680.808 709.935 683.57 706.837 686.483 703.866C687.417 702.932 688.351 701.963 689.249 700.993C703.793 685.587 715.967 667.919 725.232 648.598C733.239 631.821 739.048 613.794 742.26 594.875ZM797.032 664.622L865 483.62V717.971L812.493 699.969C812.826 698.029 813 696.035 813 694C813 681.688 806.643 670.861 797.032 664.622ZM806.811 713.878C800.496 723.014 789.947 729 778 729C766.8 729 756.829 723.74 750.423 715.555L666.378 730.485C657.915 745.4 652.551 761.963 651.003 779.28C650.5 784.775 650.249 790.341 650.249 795.943C650.249 800.576 650.392 805.244 650.751 809.805H811.133C840.903 809.805 865 785.673 865 755.902V733.829L806.811 713.878ZM425.165 758.1C419.504 737.763 408.522 719.131 393.552 703.866C392.619 702.932 391.685 701.963 390.787 700.993C376.243 685.587 364.069 667.919 354.804 648.598C346.087 630.334 339.975 610.589 336.983 589.824C336.005 589.94 335.009 590 334 590C330.833 590 327.804 589.411 325.016 588.337L218.507 651.363L287.45 769.25C288.61 769.085 289.795 769 291 769C298.932 769 306.001 772.694 310.581 778.456L425.165 758.1ZM428.269 772.784L315.968 792.733C315.989 793.153 316 793.575 316 794C316 799.995 313.89 805.498 310.371 809.805H429.285C429.644 805.244 429.787 800.576 429.787 795.943C429.787 790.341 429.536 784.775 429.033 779.28C428.838 777.102 428.583 774.936 428.269 772.784ZM351.164 380.121C345.897 376.995 341.519 372.527 338.504 367.187L215.533 380.04C215.18 382.525 215 385.048 215 387.593V487.677L313.034 551.377C315.829 547.084 319.908 543.703 324.725 541.777L351.164 380.121ZM215 636.009V505.566L309.056 566.68C309.334 570.878 310.649 574.792 312.746 578.169L215 636.009ZM215 675.079L273.888 775.774C269.033 780.334 266 786.813 266 794C266 799.995 268.11 805.498 271.629 809.805H268.903C239.133 809.805 215 785.673 215 755.902V675.079ZM345 675.5C345 682.404 339.404 688 332.5 688C325.596 688 320 682.404 320 675.5C320 668.596 325.596 663 332.5 663C339.404 663 345 668.596 345 675.5ZM703.5 781C710.404 781 716 775.404 716 768.5C716 761.596 710.404 756 703.5 756C696.596 756 691 761.596 691 768.5C691 775.404 696.596 781 703.5 781ZM807 527.5C807 534.404 801.404 540 794.5 540C787.596 540 782 534.404 782 527.5C782 520.596 787.596 515 794.5 515C801.404 515 807 520.596 807 527.5ZM477.5 302C484.404 302 490 296.404 490 289.5C490 282.596 484.404 277 477.5 277C470.596 277 465 282.596 465 289.5C465 296.404 470.596 302 477.5 302Z" fill="url(#paint1_linear_2152_615)"/>
</g>
<circle cx="197.5" cy="319.5" r="17.5" fill="#E9A07C"/>
<circle cx="152.5" cy="792.5" r="17.5" fill="#7537A8"/>
<circle cx="145" cy="493" r="25" fill="#D46E95"/>
<circle cx="930" cy="406" r="25" fill="#DF858A"/>
<circle cx="777.5" cy="192.5" r="17.5" fill="#F8C866"/>
<circle cx="391.5" cy="157.5" r="17.5" fill="#F7C568"/>
<circle cx="929.5" cy="675.5" r="17.5" fill="#974BA1"/>
<circle cx="940" cy="563" r="35" fill="#B85E9B"/>
<defs>
<filter id="filter0_i_2152_615" x="452.563" y="476.729" width="164.975" height="340.774" filterUnits="userSpaceOnUse" color-interpolation-filters="sRGB">
<feFlood flood-opacity="0" result="BackgroundImageFix"/>
<feBlend mode="normal" in="SourceGraphic" in2="BackgroundImageFix" result="shape"/>
<feColorMatrix in="SourceAlpha" type="matrix" values="0 0 0 0 0 0 0 0 0 0 0 0 0 0 0 0 0 0 127 0" result="hardAlpha"/>
<feOffset dy="7.52509"/>
<feGaussianBlur stdDeviation="3.76254"/>
<feComposite in2="hardAlpha" operator="arithmetic" k2="-1" k3="1"/>
<feColorMatrix type="matrix" values="0 0 0 0 0.5625 0 0 0 0 0.391559 0 0 0 0 0.075 0 0 0 0.57 0"/>
<feBlend mode="normal" in2="shape" result="effect1_innerShadow_2152_615"/>
</filter>
<filter id="filter1_d_2152_615" x="211" y="127" width="658" height="690.805" filterUnits="userSpaceOnUse" color-interpolation-filters="sRGB">
<feFlood flood-opacity="0" result="BackgroundImageFix"/>
<feColorMatrix in="SourceAlpha" type="matrix" values="0 0 0 0 0 0 0 0 0 0 0 0 0 0 0 0 0 0 127 0" result="hardAlpha"/>
<feOffset dy="4"/>
<feGaussianBlur stdDeviation="2"/>
<feComposite in2="hardAlpha" operator="out"/>
<feColorMatrix type="matrix" values="0 0 0 0 0 0 0 0 0 0 0 0 0 0 0 0 0 0 0.25 0"/>
<feBlend mode="normal" in2="BackgroundImageFix" result="effect1_dropShadow_2152_615"/>
<feBlend mode="normal" in="SourceGraphic" in2="effect1_dropShadow_2152_615" result="shape"/>
</filter>
<radialGradient id="paint0_radial_2152_615" cx="0" cy="0" r="1" gradientUnits="userSpaceOnUse" gradientTransform="translate(535.051 654.901) rotate(90) scale(155.076 76.7704)">
<stop offset="0.321493" stop-color="#FFF3C9"/>
<stop offset="1" stop-color="#FFC700"/>
</radialGradient>
<linearGradient id="paint1_linear_2152_615" x1="540" y1="127" x2="540" y2="809.805" gradientUnits="userSpaceOnUse">
<stop stop-color="#FFDB5B"/>
<stop offset="0.526042" stop-color="#D66F94"/>
<stop offset="1" stop-color="#6E33A9"/>
</linearGradient>
</defs>
</svg>
